<mxfile host="app.diagrams.net" modified="2023-08-03T02:42:15.030Z" agent="Mozilla/5.0 (Windows NT 10.0; Win64; x64) AppleWebKit/537.36 (KHTML, like Gecko) Chrome/115.0.0.0 Safari/537.36" etag="3qFA-gDedpw6qMDWBVJZ" version="21.6.6" type="device">
  <diagram name="PÃ¡gina-1" id="3WJOJ42ZD-m4QWkYi50i">
    <mxGraphModel dx="398" dy="211" grid="1" gridSize="10" guides="0" tooltips="1" connect="1" arrows="1" fold="1" page="1" pageScale="1" pageWidth="1169" pageHeight="827" math="0" shadow="0">
      <root>
        <mxCell id="0" />
        <mxCell id="1" parent="0" />
        <mxCell id="ZGvZzAWkPwmnTFBztEUh-1" value="DRIVES" style="rounded=0;whiteSpace=wrap;html=1;" vertex="1" parent="1">
          <mxGeometry x="320" y="340" width="90" height="40" as="geometry" />
        </mxCell>
        <mxCell id="ZGvZzAWkPwmnTFBztEUh-2" value="drives" style="shape=rhombus;perimeter=rhombusPerimeter;whiteSpace=wrap;html=1;align=center;fillColor=none;gradientColor=none;rounded=0;" vertex="1" parent="1">
          <mxGeometry x="460" y="328" width="120" height="65" as="geometry" />
        </mxCell>
        <mxCell id="ZGvZzAWkPwmnTFBztEUh-3" value="" style="endArrow=none;html=1;rounded=0;entryX=0;entryY=0.5;entryDx=0;entryDy=0;" edge="1" parent="1" target="ZGvZzAWkPwmnTFBztEUh-2">
          <mxGeometry relative="1" as="geometry">
            <mxPoint x="410" y="360" as="sourcePoint" />
            <mxPoint x="570" y="360" as="targetPoint" />
          </mxGeometry>
        </mxCell>
        <mxCell id="ZGvZzAWkPwmnTFBztEUh-4" value="" style="endArrow=none;html=1;rounded=0;entryX=0;entryY=0.5;entryDx=0;entryDy=0;exitX=1;exitY=0.5;exitDx=0;exitDy=0;" edge="1" parent="1" source="ZGvZzAWkPwmnTFBztEUh-2" target="ZGvZzAWkPwmnTFBztEUh-5">
          <mxGeometry relative="1" as="geometry">
            <mxPoint x="610" y="360" as="sourcePoint" />
            <mxPoint x="640" y="360.5" as="targetPoint" />
          </mxGeometry>
        </mxCell>
        <mxCell id="ZGvZzAWkPwmnTFBztEUh-5" value="VEHICLE" style="rounded=0;whiteSpace=wrap;html=1;gradientColor=none;fillColor=none;" vertex="1" parent="1">
          <mxGeometry x="630" y="340.5" width="90" height="40" as="geometry" />
        </mxCell>
        <mxCell id="ZGvZzAWkPwmnTFBztEUh-6" value="" style="ellipse;whiteSpace=wrap;html=1;aspect=fixed;rounded=0;" vertex="1" parent="1">
          <mxGeometry x="750" y="390" width="10" height="10" as="geometry" />
        </mxCell>
        <mxCell id="ZGvZzAWkPwmnTFBztEUh-7" value="" style="ellipse;whiteSpace=wrap;html=1;aspect=fixed;rounded=0;" vertex="1" parent="1">
          <mxGeometry x="750" y="370" width="10" height="10" as="geometry" />
        </mxCell>
        <mxCell id="ZGvZzAWkPwmnTFBztEUh-8" value="" style="ellipse;whiteSpace=wrap;html=1;aspect=fixed;rounded=0;" vertex="1" parent="1">
          <mxGeometry x="750" y="350" width="10" height="10" as="geometry" />
        </mxCell>
        <mxCell id="ZGvZzAWkPwmnTFBztEUh-9" value="" style="ellipse;whiteSpace=wrap;html=1;aspect=fixed;rounded=0;fillColor=#000000;" vertex="1" parent="1">
          <mxGeometry x="750" y="330" width="10" height="10" as="geometry" />
        </mxCell>
        <mxCell id="ZGvZzAWkPwmnTFBztEUh-11" value="" style="ellipse;whiteSpace=wrap;html=1;aspect=fixed;rounded=0;" vertex="1" parent="1">
          <mxGeometry x="280" y="380" width="10" height="10" as="geometry" />
        </mxCell>
        <mxCell id="ZGvZzAWkPwmnTFBztEUh-13" value="" style="ellipse;whiteSpace=wrap;html=1;aspect=fixed;rounded=0;" vertex="1" parent="1">
          <mxGeometry x="280" y="355.5" width="10" height="10" as="geometry" />
        </mxCell>
        <mxCell id="ZGvZzAWkPwmnTFBztEUh-14" value="" style="ellipse;whiteSpace=wrap;html=1;aspect=fixed;fillColor=#000000;rounded=0;" vertex="1" parent="1">
          <mxGeometry x="280" y="330" width="10" height="10" as="geometry" />
        </mxCell>
        <mxCell id="ZGvZzAWkPwmnTFBztEUh-16" value="" style="endArrow=none;html=1;rounded=0;exitX=1;exitY=0.25;exitDx=0;exitDy=0;entryX=0;entryY=0.5;entryDx=0;entryDy=0;" edge="1" parent="1" source="ZGvZzAWkPwmnTFBztEUh-5" target="ZGvZzAWkPwmnTFBztEUh-9">
          <mxGeometry width="50" height="50" relative="1" as="geometry">
            <mxPoint x="730" y="351" as="sourcePoint" />
            <mxPoint x="760" y="325" as="targetPoint" />
            <Array as="points">
              <mxPoint x="730" y="335" />
            </Array>
          </mxGeometry>
        </mxCell>
        <mxCell id="ZGvZzAWkPwmnTFBztEUh-17" value="" style="endArrow=none;html=1;rounded=0;exitX=1;exitY=0.5;exitDx=0;exitDy=0;entryX=0;entryY=0.5;entryDx=0;entryDy=0;" edge="1" parent="1" source="ZGvZzAWkPwmnTFBztEUh-5" target="ZGvZzAWkPwmnTFBztEUh-8">
          <mxGeometry width="50" height="50" relative="1" as="geometry">
            <mxPoint x="740" y="361" as="sourcePoint" />
            <mxPoint x="770" y="335" as="targetPoint" />
            <Array as="points">
              <mxPoint x="730" y="355" />
            </Array>
          </mxGeometry>
        </mxCell>
        <mxCell id="ZGvZzAWkPwmnTFBztEUh-18" value="" style="endArrow=none;html=1;rounded=0;exitX=1;exitY=0.75;exitDx=0;exitDy=0;entryX=0;entryY=0.5;entryDx=0;entryDy=0;" edge="1" parent="1" source="ZGvZzAWkPwmnTFBztEUh-5" target="ZGvZzAWkPwmnTFBztEUh-7">
          <mxGeometry width="50" height="50" relative="1" as="geometry">
            <mxPoint x="750" y="371" as="sourcePoint" />
            <mxPoint x="780" y="345" as="targetPoint" />
            <Array as="points">
              <mxPoint x="730" y="375" />
            </Array>
          </mxGeometry>
        </mxCell>
        <mxCell id="ZGvZzAWkPwmnTFBztEUh-19" value="" style="endArrow=none;html=1;rounded=0;exitX=1;exitY=1;exitDx=0;exitDy=0;entryX=0;entryY=0.5;entryDx=0;entryDy=0;" edge="1" parent="1" source="ZGvZzAWkPwmnTFBztEUh-5" target="ZGvZzAWkPwmnTFBztEUh-6">
          <mxGeometry width="50" height="50" relative="1" as="geometry">
            <mxPoint x="760" y="381" as="sourcePoint" />
            <mxPoint x="790" y="355" as="targetPoint" />
            <Array as="points">
              <mxPoint x="730" y="395" />
            </Array>
          </mxGeometry>
        </mxCell>
        <mxCell id="ZGvZzAWkPwmnTFBztEUh-20" value="" style="endArrow=none;html=1;rounded=0;exitX=0;exitY=0.25;exitDx=0;exitDy=0;entryX=1;entryY=0.5;entryDx=0;entryDy=0;" edge="1" parent="1" source="ZGvZzAWkPwmnTFBztEUh-1" target="ZGvZzAWkPwmnTFBztEUh-14">
          <mxGeometry width="50" height="50" relative="1" as="geometry">
            <mxPoint x="300" y="370" as="sourcePoint" />
            <mxPoint x="290" y="350" as="targetPoint" />
            <Array as="points">
              <mxPoint x="310" y="335" />
              <mxPoint x="300" y="335" />
            </Array>
          </mxGeometry>
        </mxCell>
        <mxCell id="ZGvZzAWkPwmnTFBztEUh-21" value="" style="endArrow=none;html=1;rounded=0;entryX=1;entryY=0.5;entryDx=0;entryDy=0;exitX=0;exitY=0.5;exitDx=0;exitDy=0;" edge="1" parent="1" source="ZGvZzAWkPwmnTFBztEUh-1" target="ZGvZzAWkPwmnTFBztEUh-13">
          <mxGeometry width="50" height="50" relative="1" as="geometry">
            <mxPoint x="310" y="360" as="sourcePoint" />
            <mxPoint x="300" y="335" as="targetPoint" />
            <Array as="points" />
          </mxGeometry>
        </mxCell>
        <mxCell id="ZGvZzAWkPwmnTFBztEUh-23" value="" style="endArrow=none;html=1;rounded=0;entryX=1;entryY=0.5;entryDx=0;entryDy=0;exitX=0;exitY=0.75;exitDx=0;exitDy=0;" edge="1" parent="1" source="ZGvZzAWkPwmnTFBztEUh-1" target="ZGvZzAWkPwmnTFBztEUh-11">
          <mxGeometry width="50" height="50" relative="1" as="geometry">
            <mxPoint x="350" y="370" as="sourcePoint" />
            <mxPoint x="320" y="355" as="targetPoint" />
            <Array as="points">
              <mxPoint x="310" y="385" />
            </Array>
          </mxGeometry>
        </mxCell>
        <mxCell id="ZGvZzAWkPwmnTFBztEUh-25" value="plate_number" style="text;html=1;strokeColor=none;fillColor=none;align=center;verticalAlign=middle;whiteSpace=wrap;rounded=0;" vertex="1" parent="1">
          <mxGeometry x="780" y="330" width="40" height="10" as="geometry" />
        </mxCell>
        <mxCell id="ZGvZzAWkPwmnTFBztEUh-26" value="brand&lt;br&gt;" style="text;html=1;strokeColor=none;fillColor=none;align=center;verticalAlign=middle;whiteSpace=wrap;rounded=0;" vertex="1" parent="1">
          <mxGeometry x="760" y="350" width="40" height="10" as="geometry" />
        </mxCell>
        <mxCell id="ZGvZzAWkPwmnTFBztEUh-27" value="model" style="text;html=1;strokeColor=none;fillColor=none;align=center;verticalAlign=middle;whiteSpace=wrap;rounded=0;" vertex="1" parent="1">
          <mxGeometry x="760" y="370" width="40" height="10" as="geometry" />
        </mxCell>
        <mxCell id="ZGvZzAWkPwmnTFBztEUh-28" value="image" style="text;html=1;strokeColor=none;fillColor=none;align=center;verticalAlign=middle;whiteSpace=wrap;rounded=0;" vertex="1" parent="1">
          <mxGeometry x="760" y="390" width="40" height="10" as="geometry" />
        </mxCell>
        <mxCell id="ZGvZzAWkPwmnTFBztEUh-30" value="id" style="text;html=1;strokeColor=none;fillColor=none;align=center;verticalAlign=middle;whiteSpace=wrap;rounded=0;" vertex="1" parent="1">
          <mxGeometry x="250" y="330" width="40" height="10" as="geometry" />
        </mxCell>
        <mxCell id="ZGvZzAWkPwmnTFBztEUh-31" value="name" style="text;html=1;strokeColor=none;fillColor=none;align=center;verticalAlign=middle;whiteSpace=wrap;rounded=0;" vertex="1" parent="1">
          <mxGeometry x="240" y="355.5" width="40" height="10" as="geometry" />
        </mxCell>
        <mxCell id="ZGvZzAWkPwmnTFBztEUh-32" value="phone_number" style="text;html=1;strokeColor=none;fillColor=none;align=center;verticalAlign=middle;whiteSpace=wrap;rounded=0;" vertex="1" parent="1">
          <mxGeometry x="230" y="380" width="30" height="10" as="geometry" />
        </mxCell>
        <mxCell id="ZGvZzAWkPwmnTFBztEUh-33" value="(0,1)" style="text;html=1;align=center;verticalAlign=middle;resizable=0;points=[];autosize=1;strokeColor=none;fillColor=none;rounded=0;" vertex="1" parent="1">
          <mxGeometry x="410" y="330" width="50" height="30" as="geometry" />
        </mxCell>
        <mxCell id="ZGvZzAWkPwmnTFBztEUh-34" value="(0,1)" style="text;html=1;align=center;verticalAlign=middle;resizable=0;points=[];autosize=1;strokeColor=none;fillColor=none;rounded=0;" vertex="1" parent="1">
          <mxGeometry x="575" y="328" width="50" height="30" as="geometry" />
        </mxCell>
        <mxCell id="ZGvZzAWkPwmnTFBztEUh-35" value="park" style="shape=rhombus;perimeter=rhombusPerimeter;whiteSpace=wrap;html=1;align=center;fillColor=none;gradientColor=none;rounded=0;" vertex="1" parent="1">
          <mxGeometry x="615" y="414" width="120" height="65" as="geometry" />
        </mxCell>
        <mxCell id="ZGvZzAWkPwmnTFBztEUh-36" value="PARKING" style="rounded=0;whiteSpace=wrap;html=1;gradientColor=none;fillColor=none;" vertex="1" parent="1">
          <mxGeometry x="630" y="510" width="90" height="40" as="geometry" />
        </mxCell>
        <mxCell id="ZGvZzAWkPwmnTFBztEUh-37" value="" style="endArrow=none;html=1;rounded=0;entryX=0.5;entryY=1;entryDx=0;entryDy=0;exitX=0.5;exitY=0;exitDx=0;exitDy=0;" edge="1" parent="1" source="ZGvZzAWkPwmnTFBztEUh-35" target="ZGvZzAWkPwmnTFBztEUh-5">
          <mxGeometry relative="1" as="geometry">
            <mxPoint x="590" y="371" as="sourcePoint" />
            <mxPoint x="640" y="371" as="targetPoint" />
          </mxGeometry>
        </mxCell>
        <mxCell id="ZGvZzAWkPwmnTFBztEUh-38" value="" style="endArrow=none;html=1;rounded=0;entryX=0.5;entryY=0;entryDx=0;entryDy=0;exitX=0.5;exitY=1;exitDx=0;exitDy=0;" edge="1" parent="1" source="ZGvZzAWkPwmnTFBztEUh-35" target="ZGvZzAWkPwmnTFBztEUh-36">
          <mxGeometry relative="1" as="geometry">
            <mxPoint x="600" y="381" as="sourcePoint" />
            <mxPoint x="650" y="381" as="targetPoint" />
          </mxGeometry>
        </mxCell>
        <mxCell id="ZGvZzAWkPwmnTFBztEUh-39" value="" style="ellipse;whiteSpace=wrap;html=1;aspect=fixed;rounded=0;" vertex="1" parent="1">
          <mxGeometry x="540" y="300" width="10" height="10" as="geometry" />
        </mxCell>
        <mxCell id="ZGvZzAWkPwmnTFBztEUh-40" value="" style="ellipse;whiteSpace=wrap;html=1;aspect=fixed;rounded=0;" vertex="1" parent="1">
          <mxGeometry x="520" y="280" width="10" height="10" as="geometry" />
        </mxCell>
        <mxCell id="ZGvZzAWkPwmnTFBztEUh-41" value="" style="ellipse;whiteSpace=wrap;html=1;aspect=fixed;rounded=0;" vertex="1" parent="1">
          <mxGeometry x="820" y="510" width="10" height="10" as="geometry" />
        </mxCell>
        <mxCell id="ZGvZzAWkPwmnTFBztEUh-42" value="" style="ellipse;whiteSpace=wrap;html=1;aspect=fixed;fillColor=#000000;rounded=0;" vertex="1" parent="1">
          <mxGeometry x="750" y="490" width="10" height="10" as="geometry" />
        </mxCell>
        <mxCell id="ZGvZzAWkPwmnTFBztEUh-45" value="address" style="ellipse;whiteSpace=wrap;html=1;rounded=0;" vertex="1" parent="1">
          <mxGeometry x="755" y="520" width="50" height="20" as="geometry" />
        </mxCell>
        <mxCell id="ZGvZzAWkPwmnTFBztEUh-46" value="" style="ellipse;whiteSpace=wrap;html=1;aspect=fixed;rounded=0;" vertex="1" parent="1">
          <mxGeometry x="820" y="530" width="10" height="10" as="geometry" />
        </mxCell>
        <mxCell id="ZGvZzAWkPwmnTFBztEUh-47" value="" style="ellipse;whiteSpace=wrap;html=1;aspect=fixed;rounded=0;" vertex="1" parent="1">
          <mxGeometry x="820" y="550" width="10" height="10" as="geometry" />
        </mxCell>
        <mxCell id="ZGvZzAWkPwmnTFBztEUh-52" value="" style="endArrow=none;html=1;entryX=0.5;entryY=1;entryDx=0;entryDy=0;exitX=0.713;exitY=0.209;exitDx=0;exitDy=0;exitPerimeter=0;rounded=0;" edge="1" parent="1" source="ZGvZzAWkPwmnTFBztEUh-2" target="ZGvZzAWkPwmnTFBztEUh-39">
          <mxGeometry width="50" height="50" relative="1" as="geometry">
            <mxPoint x="740" y="400" as="sourcePoint" />
            <mxPoint x="790" y="350" as="targetPoint" />
          </mxGeometry>
        </mxCell>
        <mxCell id="ZGvZzAWkPwmnTFBztEUh-53" value="" style="endArrow=none;html=1;entryX=0.5;entryY=1;entryDx=0;entryDy=0;exitX=0.547;exitY=0.045;exitDx=0;exitDy=0;exitPerimeter=0;rounded=0;" edge="1" parent="1" source="ZGvZzAWkPwmnTFBztEUh-2" target="ZGvZzAWkPwmnTFBztEUh-40">
          <mxGeometry width="50" height="50" relative="1" as="geometry">
            <mxPoint x="530" y="330" as="sourcePoint" />
            <mxPoint x="580" y="280" as="targetPoint" />
          </mxGeometry>
        </mxCell>
        <mxCell id="ZGvZzAWkPwmnTFBztEUh-54" value="" style="endArrow=none;html=1;entryX=0;entryY=0.5;entryDx=0;entryDy=0;exitX=1;exitY=0.5;exitDx=0;exitDy=0;rounded=0;" edge="1" parent="1" source="ZGvZzAWkPwmnTFBztEUh-36" target="ZGvZzAWkPwmnTFBztEUh-45">
          <mxGeometry width="50" height="50" relative="1" as="geometry">
            <mxPoint x="570" y="480" as="sourcePoint" />
            <mxPoint x="620" y="430" as="targetPoint" />
          </mxGeometry>
        </mxCell>
        <mxCell id="ZGvZzAWkPwmnTFBztEUh-55" value="" style="endArrow=none;html=1;entryX=0;entryY=0.5;entryDx=0;entryDy=0;exitX=1;exitY=0.25;exitDx=0;exitDy=0;rounded=0;" edge="1" parent="1" source="ZGvZzAWkPwmnTFBztEUh-36" target="ZGvZzAWkPwmnTFBztEUh-42">
          <mxGeometry width="50" height="50" relative="1" as="geometry">
            <mxPoint x="730" y="540" as="sourcePoint" />
            <mxPoint x="765" y="540" as="targetPoint" />
            <Array as="points">
              <mxPoint x="730" y="495" />
            </Array>
          </mxGeometry>
        </mxCell>
        <mxCell id="ZGvZzAWkPwmnTFBztEUh-56" value="" style="endArrow=none;html=1;entryX=0;entryY=0.5;entryDx=0;entryDy=0;exitX=0.957;exitY=0.315;exitDx=0;exitDy=0;exitPerimeter=0;" edge="1" parent="1" source="ZGvZzAWkPwmnTFBztEUh-45" target="ZGvZzAWkPwmnTFBztEUh-41">
          <mxGeometry width="50" height="50" relative="1" as="geometry">
            <mxPoint x="800" y="550" as="sourcePoint" />
            <mxPoint x="850" y="500" as="targetPoint" />
          </mxGeometry>
        </mxCell>
        <mxCell id="ZGvZzAWkPwmnTFBztEUh-57" value="" style="endArrow=none;html=1;entryX=0;entryY=0.5;entryDx=0;entryDy=0;exitX=1;exitY=0.5;exitDx=0;exitDy=0;" edge="1" parent="1" source="ZGvZzAWkPwmnTFBztEUh-45" target="ZGvZzAWkPwmnTFBztEUh-46">
          <mxGeometry width="50" height="50" relative="1" as="geometry">
            <mxPoint x="813" y="536" as="sourcePoint" />
            <mxPoint x="830" y="525" as="targetPoint" />
          </mxGeometry>
        </mxCell>
        <mxCell id="ZGvZzAWkPwmnTFBztEUh-58" value="" style="endArrow=none;html=1;entryX=0;entryY=0.5;entryDx=0;entryDy=0;exitX=0.934;exitY=0.777;exitDx=0;exitDy=0;exitPerimeter=0;" edge="1" parent="1" source="ZGvZzAWkPwmnTFBztEUh-45" target="ZGvZzAWkPwmnTFBztEUh-47">
          <mxGeometry width="50" height="50" relative="1" as="geometry">
            <mxPoint x="823" y="546" as="sourcePoint" />
            <mxPoint x="840" y="535" as="targetPoint" />
          </mxGeometry>
        </mxCell>
        <mxCell id="ZGvZzAWkPwmnTFBztEUh-59" value="end_date" style="text;html=1;strokeColor=none;fillColor=none;align=center;verticalAlign=middle;whiteSpace=wrap;rounded=0;" vertex="1" parent="1">
          <mxGeometry x="560" y="300" width="40" height="10" as="geometry" />
        </mxCell>
        <mxCell id="ZGvZzAWkPwmnTFBztEUh-60" value="start_date" style="text;html=1;strokeColor=none;fillColor=none;align=center;verticalAlign=middle;whiteSpace=wrap;rounded=0;" vertex="1" parent="1">
          <mxGeometry x="540" y="280" width="40" height="10" as="geometry" />
        </mxCell>
        <mxCell id="ZGvZzAWkPwmnTFBztEUh-62" value="(0,1)" style="text;html=1;align=center;verticalAlign=middle;resizable=0;points=[];autosize=1;strokeColor=none;fillColor=none;rounded=0;" vertex="1" parent="1">
          <mxGeometry x="630" y="380" width="50" height="30" as="geometry" />
        </mxCell>
        <mxCell id="ZGvZzAWkPwmnTFBztEUh-63" value="(0,n)" style="text;html=1;align=center;verticalAlign=middle;resizable=0;points=[];autosize=1;strokeColor=none;fillColor=none;rounded=0;" vertex="1" parent="1">
          <mxGeometry x="630" y="480" width="50" height="30" as="geometry" />
        </mxCell>
        <mxCell id="ZGvZzAWkPwmnTFBztEUh-64" value="(1,n)" style="text;html=1;align=center;verticalAlign=middle;resizable=0;points=[];autosize=1;strokeColor=none;fillColor=none;rounded=0;" vertex="1" parent="1">
          <mxGeometry x="710" y="390" width="50" height="30" as="geometry" />
        </mxCell>
        <mxCell id="ZGvZzAWkPwmnTFBztEUh-65" value="id" style="text;html=1;strokeColor=none;fillColor=none;align=center;verticalAlign=middle;whiteSpace=wrap;rounded=0;" vertex="1" parent="1">
          <mxGeometry x="750" y="490" width="40" height="10" as="geometry" />
        </mxCell>
        <mxCell id="ZGvZzAWkPwmnTFBztEUh-66" value="city" style="text;html=1;strokeColor=none;fillColor=none;align=center;verticalAlign=middle;whiteSpace=wrap;rounded=0;" vertex="1" parent="1">
          <mxGeometry x="820" y="510" width="50" height="10" as="geometry" />
        </mxCell>
        <mxCell id="ZGvZzAWkPwmnTFBztEUh-67" value="street" style="text;html=1;strokeColor=none;fillColor=none;align=center;verticalAlign=middle;whiteSpace=wrap;rounded=0;" vertex="1" parent="1">
          <mxGeometry x="830" y="530" width="40" height="10" as="geometry" />
        </mxCell>
        <mxCell id="ZGvZzAWkPwmnTFBztEUh-68" value="number" style="text;html=1;strokeColor=none;fillColor=none;align=center;verticalAlign=middle;whiteSpace=wrap;rounded=0;" vertex="1" parent="1">
          <mxGeometry x="830" y="550" width="50" height="10" as="geometry" />
        </mxCell>
      </root>
    </mxGraphModel>
  </diagram>
</mxfile>
